<?xml version="1.0" encoding="utf-8"?>
<!-- Generator: Adobe Illustrator 24.1.2, SVG Export Plug-In . SVG Version: 6.00 Build 0)  -->
<svg version="1.1" id="Слой_1" xmlns="http://www.w3.org/2000/svg" xmlns:xlink="http://www.w3.org/1999/xlink" x="0px" y="0px"
	 viewBox="0 0 100 100" style="enable-background:new 0 0 100 100;" xml:space="preserve">
<style type="text/css">
	.st0{fill:#575656;}
	.st1{fill:#9B9B9B;}
	.st2{fill-rule:evenodd;clip-rule:evenodd;fill:#9B9B9B;}
</style>
<path class="st0" d="M59.1,45.4c3.4,0,6.3-1.3,8.6-4c2.2-2.6,3.3-5.9,3.3-9.7s-1.1-7.1-3.3-9.7c-2.3-2.7-5.2-4-8.6-4
	c-3.4,0-6.1,1.3-8.2,4c-2.1,2.6-3.1,5.8-3.1,9.7s1,7.1,3.1,9.7C53,44.1,55.7,45.4,59.1,45.4z M52,23.2c1.8-2.4,4.2-3.5,7.1-3.5
	c2.9,0,5.4,1.2,7.3,3.5s2.9,5.2,2.9,8.6s-1,6.2-2.9,8.6s-4.4,3.5-7.3,3.5c-2.9,0-5.3-1.2-7.1-3.5c-1.7-2.3-2.6-5.1-2.6-8.6
	C49.4,28.3,50.3,25.4,52,23.2z M32.6,45L18,21.4V45h-1.7V18.2H18l14.6,23.6V18.2h1.7V45H32.6z M84.9,51.2l-8.5,13.6L76.2,65v12.9
	h-1.7v-13l-8.6-13.7h2l7.5,12l7.5-12H84.9L84.9,51.2z M47.7,51.2h15.6v1.7h-7V78h-1.7V52.9h-7L47.7,51.2L47.7,51.2z M30.7,50.9
	c1.1,0,2.7,0.1,4.8,0.3v1.7c-2.3-0.2-4-0.3-5.2-0.3c-2.3,0-4.1,0.5-5.4,1.5s-2.2,1.9-2.7,2.8c-0.9,1.6-1.5,3.9-1.7,7v1.7
	c0.2,3,0.8,5.4,1.7,7c0.5,0.9,1.4,1.9,2.7,2.9S28,77,30.3,77c1.2,0,2.9-0.1,5.2-0.3v1.7c-2.1,0.2-3.7,0.3-4.8,0.3
	c-3.1,0-5.4-0.6-7.1-1.8c-1.4-1-2.5-2.1-3.1-3.3c-1-1.8-1.6-4.3-1.7-7.5l0,0v-0.6v-1.7l0,0c0.1-3.2,0.7-5.7,1.7-7.5
	c0.6-1.1,1.6-2.2,3.1-3.3C25.3,51.5,27.7,50.9,30.7,50.9z"/>
<path class="st1" d="M75.9,88.6c0,0.4-0.2,0.7-0.5,1c-0.3,0.2-0.6,0.4-1.1,0.4c-0.3,0-0.6-0.1-0.9-0.2c-0.2-0.1-0.3-0.2-0.5-0.3
	c-0.1-0.1-0.1-0.2-0.1-0.3c0-0.1,0.1-0.1,0.2-0.2s0.2-0.1,0.3-0.1c0.1,0.1,0.2,0.2,0.4,0.3c0.2,0.1,0.5,0.2,0.8,0.2
	c0.2,0,0.4-0.1,0.6-0.2s0.2-0.3,0.2-0.5c0-0.3-0.2-0.5-0.6-0.7c-0.2-0.1-0.4-0.2-0.7-0.3c-0.3-0.1-0.5-0.3-0.6-0.4
	c-0.2-0.2-0.4-0.5-0.4-0.8c0-0.4,0.1-0.7,0.4-0.9c0.3-0.2,0.6-0.3,1-0.3c0.1,0,0.2,0,0.3,0c0.5,0.1,0.9,0.4,1,0.8
	c0,0.1,0,0.1-0.1,0.2s-0.2,0.1-0.2,0.1c-0.1-0.1-0.2-0.2-0.4-0.3c-0.2-0.1-0.4-0.2-0.6-0.2S74,86,73.9,86.1s-0.2,0.3-0.2,0.5
	s0.2,0.4,0.6,0.6c0.2,0.1,0.4,0.2,0.7,0.4c0.3,0.1,0.4,0.3,0.6,0.4C75.7,88,75.9,88.3,75.9,88.6 M70,89c0,0.2-0.1,0.4-0.2,0.5
	s-0.2,0.2-0.5,0.3S68.9,90,68.7,90c-0.5,0-1-0.2-1.3-0.6C67.1,89,67,88.5,67,87.8c0-0.3,0-0.6,0.1-0.9c0.1-0.4,0.1-0.6,0.2-0.8
	c0.1-0.3,0.3-0.5,0.5-0.7c0.3-0.2,0.5-0.3,0.9-0.3c0.2,0,0.4,0,0.6,0.1s0.4,0.2,0.5,0.3c0.1,0.1,0.2,0.3,0.2,0.5
	c0,0.1-0.1,0.1-0.2,0.2c0,0-0.1,0.1-0.2,0.1c-0.2,0-0.3,0-0.2,0c0-0.1-0.1-0.3-0.2-0.4s-0.3-0.2-0.5-0.2c-0.4,0-0.7,0.2-0.9,0.6
	c-0.1,0.3-0.2,0.6-0.2,1c0,0.3,0,0.5,0.1,0.8c0,0.4,0.1,0.6,0.2,0.7c0.2,0.3,0.4,0.5,0.8,0.5c0.2,0,0.4-0.1,0.6-0.2s0.3-0.2,0.3-0.4
	c0.1,0,0.1,0,0.2,0.1C70,88.9,70,89,70,89z M63.9,89.6c0,0.1-0.1,0.1-0.4,0.2c-0.2,0-0.3,0.1-0.5,0.1c-0.1,0-0.1,0-0.2-0.1
	c0-0.1,0-0.2,0-0.3l0.2-0.2v-3.5l-0.2-0.2c0-0.1,0-0.2,0.1-0.3c0-0.1,0.1-0.1,0.1-0.1c0.1,0,0.3,0,0.5,0.1c0.3,0.1,0.4,0.1,0.4,0.2
	v0.2l-0.2,0.2v3.4l0.2,0.2L63.9,89.6L63.9,89.6z M60,85.6c0,0.1-0.1,0.1-0.3,0.1c-0.1,0-0.3,0-0.4,0h-0.7v3.8c0,0.1,0,0.2-0.1,0.2
	s-0.1,0.1-0.2,0.1c-0.1,0-0.2,0-0.2-0.1c-0.1,0-0.1-0.1-0.1-0.2v-3.8h-0.7c-0.1,0-0.2,0-0.4,0s-0.3-0.1-0.3-0.1c0-0.1,0-0.2,0.1-0.2
	c0.1-0.1,0.1-0.2,0.2-0.2h2.7c0.1,0,0.1,0.1,0.2,0.2C60,85.5,60,85.5,60,85.6z M54.2,89.7c0,0.1-0.1,0.1-0.2,0.1c-0.1,0-0.2,0-0.4,0
	h-1.5c-0.1,0-0.2,0-0.4,0c-0.2-0.1-0.3-0.1-0.3-0.2v-3.7c0-0.1,0-0.2,0.1-0.4c0.1-0.2,0.1-0.3,0.2-0.3h2.2c0.1,0,0.1,0.1,0.2,0.2
	c0,0.1,0.1,0.2,0.1,0.2c0,0.1-0.1,0.1-0.3,0.1c-0.1,0-0.3,0-0.4,0h-1.3V87h1.5c0.1,0,0.1,0.1,0.2,0.2c0,0.1,0.1,0.2,0.1,0.2
	c0,0.1-0.1,0.1-0.3,0.1c-0.1,0-0.3,0-0.4,0h-1v1.6h1.8c0.1,0,0.1,0.1,0.2,0.2C54.2,89.5,54.2,89.6,54.2,89.7L54.2,89.7z M48,89.7
	c0,0.1-0.1,0.1-0.2,0.2c-0.1,0-0.2,0.1-0.3,0.1s-0.1-0.1-0.1-0.3c0-0.1-0.1-0.2-0.1-0.4L47.2,86c0,0.1-0.1,0.2-0.1,0.4
	c-0.1,0.1-0.1,0.3-0.2,0.4c-0.2,0.8-0.5,1.7-0.7,2.6c0,0-0.1,0.1-0.3,0.1c-0.1,0-0.2,0-0.3,0c0,0-0.1,0-0.1-0.1s-0.1-0.1-0.1-0.1
	c-0.1-0.1-0.1-0.3-0.1-0.4L44.4,86l-0.2,1.5c0,0.4,0,0.8-0.1,1.3c0,0.8-0.1,1.1-0.2,1.1c-0.1,0-0.2,0-0.3-0.1
	c-0.1,0-0.2-0.1-0.2-0.2c0-0.2,0-0.3,0-0.4l0.2-3.5c0-0.1,0-0.3,0.1-0.4c0-0.2,0.1-0.3,0.2-0.3c0.1,0,0.2,0,0.4,0.1s0.3,0.1,0.3,0.2
	l1,3.3l0.5-1.2l0.4-1.2c0.2-0.7,0.4-1.1,0.4-1.1c0.1,0,0.3,0,0.4,0.1c0.2,0.1,0.3,0.1,0.3,0.2l0.1,3.9C48,89.4,48,89.5,48,89.7
	L48,89.7z M40.4,88.6c0,0.4-0.2,0.7-0.5,1c-0.3,0.2-0.6,0.4-1.1,0.4c-0.3,0-0.6-0.1-0.9-0.2c-0.2-0.1-0.3-0.2-0.5-0.3
	c-0.1-0.1-0.1-0.2-0.1-0.3c0-0.1,0.1-0.1,0.2-0.2c0.1-0.1,0.2-0.1,0.3-0.1c0.1,0.1,0.2,0.2,0.4,0.3c0.2,0.1,0.5,0.2,0.8,0.2
	c0.2,0,0.4-0.1,0.6-0.2c0.2-0.1,0.2-0.3,0.2-0.5c0-0.3-0.2-0.5-0.6-0.7c-0.2-0.1-0.4-0.2-0.7-0.3c-0.3-0.1-0.5-0.3-0.6-0.4
	c-0.2-0.2-0.4-0.5-0.4-0.8c0-0.4,0.1-0.7,0.4-0.9c0.3-0.2,0.6-0.3,1-0.3c0.1,0,0.2,0,0.3,0c0.5,0.1,0.9,0.4,1,0.8
	c0,0.1,0,0.1-0.1,0.2s-0.2,0.1-0.2,0.1c-0.1-0.1-0.2-0.2-0.4-0.3c-0.2-0.1-0.4-0.2-0.6-0.2c-0.2,0-0.4,0.1-0.5,0.2s-0.2,0.3-0.2,0.5
	s0.2,0.4,0.6,0.6c0.2,0.1,0.4,0.2,0.7,0.4c0.3,0.1,0.4,0.3,0.6,0.4C40.3,88,40.4,88.3,40.4,88.6z M33.8,87.8c0-0.3,0-0.5-0.1-0.8
	c0-0.4-0.1-0.6-0.2-0.7c-0.2-0.4-0.4-0.6-0.8-0.6c-0.3,0-0.6,0.2-0.8,0.4c-0.2,0.3-0.3,0.7-0.3,1.2c0,0.2,0,0.5,0.1,0.8
	c0,0.4,0.1,0.6,0.2,0.7c0,0.1,0.1,0.2,0.2,0.3c0.2,0.1,0.4,0.2,0.6,0.2c0.3,0,0.6-0.1,0.8-0.4C33.7,88.7,33.8,88.3,33.8,87.8z
	 M34.5,87.8c0,0.6-0.1,1.1-0.4,1.5c-0.3,0.5-0.8,0.7-1.3,0.7c-0.6,0-1-0.2-1.3-0.7c-0.3-0.4-0.4-0.9-0.4-1.5c0-0.3,0-0.5,0.1-0.9
	c0-0.4,0.1-0.6,0.2-0.8c0.1-0.3,0.3-0.6,0.6-0.7s0.6-0.3,0.9-0.3c0.3,0,0.6,0.1,0.9,0.3c0.3,0.2,0.5,0.4,0.6,0.8
	c0.1,0.2,0.2,0.4,0.2,0.8C34.5,87.2,34.5,87.5,34.5,87.8z M28.3,89c0,0.2-0.1,0.4-0.2,0.5s-0.2,0.2-0.5,0.3S27.1,90,26.9,90
	c-0.5,0-1-0.2-1.3-0.6s-0.4-0.9-0.4-1.6c0-0.3,0-0.6,0.1-0.9c0.1-0.4,0.1-0.6,0.2-0.8c0.1-0.3,0.3-0.5,0.5-0.7
	c0.3-0.2,0.5-0.3,0.9-0.3c0.2,0,0.4,0,0.6,0.1s0.4,0.2,0.5,0.3c0.1,0.1,0.2,0.3,0.2,0.5c0,0.1,0,0.1-0.2,0.2c0,0-0.1,0.1-0.2,0.1
	c-0.2,0-0.3,0-0.2,0c0-0.1-0.1-0.3-0.2-0.4s-0.3-0.2-0.5-0.2c-0.4,0-0.7,0.2-0.9,0.6c-0.1,0.3-0.2,0.6-0.2,1c0,0.3,0,0.5,0.1,0.8
	c0,0.4,0.1,0.6,0.2,0.7c0.2,0.3,0.4,0.5,0.8,0.5c0.2,0,0.4-0.1,0.6-0.2s0.3-0.2,0.3-0.4c0,0,0.1,0,0.2,0.1
	C28.2,88.9,28.3,89,28.3,89z"/>
<path class="st2" d="M40.7,17.6h2.2v60.3h-2.2V17.6z M42.1,10c-1.2,0-2.2,1-2.2,2.2s1,2.2,2.2,2.2s2.2-1,2.2-2.2S43.4,10,42.1,10z"
	/>
</svg>
