<?xml version="1.0" encoding="utf-8"?>
<!-- Generator: Adobe Illustrator 24.1.2, SVG Export Plug-In . SVG Version: 6.00 Build 0)  -->
<svg version="1.1" id="Слой_1" xmlns="http://www.w3.org/2000/svg" xmlns:xlink="http://www.w3.org/1999/xlink" x="0px" y="0px"
	 viewBox="0 0 1258 1069.3" style="enable-background:new 0 0 1258 1069.3;" xml:space="preserve">
<path d="M1169,301.9h68.8V673H1169V301.9z M382.4,410.3c-26.5-54.6-74.9-91.9-136.5-91.9C158.1,318.4,92,394.1,92,487.5
	s66.1,169.1,153.9,169.1c78.4,0,138.4-60.3,151.5-139.7H187v-33.1h293.1v3.7c0,106.6-104.9,193-234.3,193s-234.3-86.4-234.3-193
	s104.9-193,234.3-193c96.1,0,178.7,47.6,215,115.8H382.4L382.4,410.3z M530.6,305.3h68.8v371.2h-68.8V305.3z M1020.7,410.3
	c-26.5-54.6-74.9-91.9-136.5-91.9c-87.8,0-153.9,75.7-153.9,169.1s66.1,169.1,153.9,169.1c78.4,0,138.4-60.3,151.5-139.7H825.4
	v-33.1h293.1v1.8v1.8c0,106.6-104.9,193-234.3,193s-234.3-86.4-234.3-193s104.9-193,234.3-193c96.1,0,178.7,47.6,215,115.8
	L1020.7,410.3L1020.7,410.3z M1241.4,791.4c-1.2-1.9-2.8-3.4-4.6-4.8c-2.7-2.1-7.3-4-10.4-5.3c-2.6-1.1-5.3-2.2-7.9-3.3
	c-1.9-0.9-3.7-1.9-5.3-3.3c-1.1-0.9-1.9-2-2.3-3.4c-0.6-2-0.2-4,0.6-5.9c1.2-2.7,3.2-4.3,5.9-5.3c1.7-0.6,3.5-0.8,5.3-0.8
	c8.2,0.1,13.1,5.8,14.1,8.4h1.1l2.9-7.8c-2.7-3.1-9.2-6.1-16.8-6.6c-3-0.2-7.9-0.1-10.7,0.6c-3.8,1-7.2,2.7-9.9,5.6
	c-1.2,1.2-2.2,2.6-2.9,4.1c-0.7,1.5-1.2,3-1.5,4.7c-0.4,2.4-0.5,4.8,0.1,7.2c0.9,3.3,2.9,5.4,5.5,7.6c3.3,2.8,9.1,5,13.1,6.6
	c2.2,0.9,4.3,1.7,6.5,2.7c2,0.9,3.8,2,5.4,3.4c1.4,1.3,2.4,3.1,2.8,5c0.5,2.4,0,4.7-1,6.9c-1,2.1-2.5,3.7-4.5,4.8
	c-1.9,1.1-4.1,1.8-6.3,1.9c-3.8,0.2-7.9-0.7-10.2-2.1c-4.2-2.4-7.1-5.5-8.6-11.6h-1.1l-4.1,9.1c1.7,2.4,7.4,6.4,10.8,7.9
	c2.3,1.1,4.6,1.7,7,2.2c2.3,0.5,4.6,0.5,6.9,0.4s6.3-0.4,8.5-1.1c3.7-1.1,7-2.9,9.7-5.8C1243.4,809.1,1246.2,799.3,1241.4,791.4
	L1241.4,791.4z M1042.3,754.1h-14.4v65.7h14.4V754.1z M389.2,753.1c-20.5,0-36.8,14.9-36.8,33.9s16.2,33.9,36.8,33.8
	c20.7,0,36.7-15,36.7-33.9C425.9,767.9,409.6,753.2,389.2,753.1z M410.1,794.6c-1,4.3-2.7,8.2-5.4,11.7c-2.4,3.1-5.3,5.5-8.9,6.9
	c-3,1.2-6.2,1.5-9.4,1c-3.2-0.5-6.1-1.9-8.6-3.9c-2.6-2.1-4.6-4.6-6.2-7.6c-1.1-2-1.9-4-2.5-6.2c-1-3.5-1.4-7.1-1.4-10.8
	c0.1-2.5,0.4-5,1-7.5c1.2-4.9,3.3-9.3,6.8-13.1c2.2-2.3,4.7-3.7,7.6-4.8c2.3-0.8,4.7-1.2,7.1-1.1c4.7,0.2,8.6,2.1,11.9,5.3
	c3.1,2.9,5.2,6,6.7,9.9c0.8,2,1.4,4.1,1.6,6.2c0.3,2,0.4,4,0.6,5.2C410.9,789.4,410.7,792,410.1,794.6L410.1,794.6z M826,753.1
	c-20.5,0-36.8,14.9-36.8,33.9s16.2,33.9,36.8,33.8c20.7,0,36.7-15,36.7-33.9C862.8,767.9,846.4,753.2,826,753.1z M846.9,794.6
	c-1,4.3-2.7,8.2-5.4,11.7c-2.4,3.1-5.3,5.5-8.9,6.9c-3,1.2-6.2,1.5-9.4,1s-6.1-1.9-8.6-3.9c-2.6-2.1-4.6-4.6-6.2-7.6
	c-1.1-2-1.9-4-2.5-6.2c-1-3.5-1.5-7.1-1.4-10.8c0-2.5,0.4-5,1-7.5c1.2-4.9,3.3-9.3,6.8-13.1c2.1-2.3,4.7-3.7,7.6-4.8
	c2.3-0.8,4.7-1.2,7.1-1.1c4.7,0.2,8.6,2.1,11.9,5.3c3.1,2.9,5.2,6,6.7,9.9c0.8,2,1.4,4.1,1.6,6.2c0.3,2,0.4,4,0.6,5.2
	C847.8,789.4,847.5,792,846.9,794.6L846.9,794.6z M158.1,753.3l-30.5,66.6h7.6l4.1-9.3c1.7-3.7,4.7-10.6,5.6-12.5
	c12.4,0,24.6,0,24.6,0h0.3c0.8,1.9,4.1,9.4,5.4,12.6c1.2,2.9,4,9.1,4,9.1H194l-30.2-66.6L158.1,753.3L158.1,753.3L158.1,753.3z
	 M147.6,791.9c0,0,9.9-22,9.9-22.1l9.6,22.1H147.6z M610.7,753.3l-30.5,66.6h7.6l4.1-9.3c1.7-3.7,4.7-10.6,5.6-12.5
	c12.4,0,24.5,0,24.5,0h0.3c0.8,1.9,4.1,9.4,5.4,12.6c1.2,2.9,4,9.1,4,9.1h14.8l-30.2-66.6L610.7,753.3L610.7,753.3L610.7,753.3z
	 M600.2,791.9c0,0,9.9-22,9.9-22.1c0,0,6.4,14.6,9.6,22.1H600.2L600.2,791.9z M55,812.3V754H40.4v65.8h41.9v-7.5H55z M523.6,788
	c4.2-2.7,6.6-6.8,7.4-11.8c0.5-3.6,0-7-1.6-10.2c-1.5-3.1-3.7-5.5-6.5-7.5c-3-2-6.3-3.3-9.8-4c-1.9-0.4-3.8-0.5-5.7-0.5h-25.3v65.8
	h14v-27.6h3.5l19.1,27.7l16.5-0.1l-19.5-28.1C515.8,791.7,519,791.1,523.6,788z M504.3,786.9c-2.5,0-8.2,0-8.2,0v-27.3
	c0,0,3.5,0,6.5,0c1.1,0,2.2,0.1,3,0.1c4.1,0.3,7.5,1.9,10.2,5.1c1.2,1.4,1.9,3.1,2.4,4.9c0.4,1.8,0.5,3.6,0.3,5.4
	c-0.6,5.2-3.2,8.8-8.1,10.7C508.4,786.6,506.3,786.9,504.3,786.9L504.3,786.9z M296.9,794.7c-1.5-3.6-4-6.3-7.5-8.1
	c-1.3-0.7-2.8-1.1-4.2-1.7c0.6-0.2,1.2-0.4,1.7-0.7c2.4-1.1,4.5-2.7,6-4.8c1.1-1.6,1.9-3.4,2.2-5.3c0.4-2.6,0.3-5.2-0.5-7.8
	c-1-3.1-2.8-5.8-5.4-7.8c-2.7-2.2-5.9-3.3-9.2-4c-2-0.4-4.1-0.5-6.1-0.5c-8.4,0-25.7,0-25.7,0v65.8h28.4c2.8,0,5.6-0.3,8.2-1
	c1.9-0.5,3.6-1.3,5.3-2.3c2.5-1.6,4.5-3.7,5.9-6.4c1.1-2.1,1.7-4.3,2-6.6C298.4,800.5,298,797.5,296.9,794.7L296.9,794.7z
	 M270.4,759.7c3.6,0.1,6.8,1.2,9.2,4c1.3,1.5,2.1,3.2,2.5,5.2c0.3,1.7,0.3,3.5,0,5.2c-0.7,3.1-2.4,5.6-5.2,7.2
	c-2.1,1.2-4.5,1.7-6.9,1.8c-1,0-2.1,0-2.9,0c-1.7,0-4.9,0-4.9,0v-23.4C265.4,759.6,267.2,759.5,270.4,759.7L270.4,759.7z M285,803.1
	c-0.5,2.9-1.6,5.4-3.8,7.4c-1.4,1.3-3.1,2.1-4.9,2.6c-1.7,0.4-3.3,0.5-5,0.5c-3.5,0-5.5,0-9,0v-25.1c3.8,0,5.9,0,9.7,0
	c2.3,0,4.6,0.3,6.7,1.2c2.5,1.1,4.3,2.8,5.4,5.2C285.1,797.5,285.4,800.3,285,803.1L285,803.1z M739.5,754H691v6.6h17v59.2h14.4
	v-59.2h17L739.5,754L739.5,754z M1148.9,760.1V754h-44.1v65.8h44.1v-6.1h-30.3v-24.2h29v-6.1h-29V760L1148.9,760.1L1148.9,760.1z
	 M960.2,788c4.2-2.7,6.6-6.8,7.4-11.8c0.5-3.6,0-7-1.6-10.2c-1.5-3.1-3.7-5.5-6.5-7.5c-3-2-6.3-3.3-9.8-4c-1.9-0.4-3.8-0.5-5.7-0.5
	h-25.3v65.8h14v-27.6h3.5l19.1,27.7l16.5-0.1l-19.5-28.1C952.4,791.7,955.6,791.1,960.2,788L960.2,788z M940.9,786.9
	c-2.5,0-8.2,0-8.2,0v-27.3c0,0,3.5,0,6.5,0c1.1,0,2.2,0.1,3,0.1c4.1,0.3,7.5,1.9,10.2,5.1c1.2,1.4,1.9,3.1,2.4,4.9
	c0.4,1.8,0.5,3.6,0.3,5.4c-0.6,5.2-3.2,8.8-8.1,10.7C945,786.6,942.9,786.9,940.9,786.9L940.9,786.9z"/>
</svg>
