<?xml version="1.0" encoding="UTF-8"?> <svg xmlns="http://www.w3.org/2000/svg" id="Layer_1" data-name="Layer 1" viewBox="0 0 359.06 228"> <defs> <style>.cls-1{fill:#e50043;}</style> </defs> <title>Isov</title> <path class="cls-1" d="M189.83,113.25a36.6,36.6,0,0,0-26.62,11.06Q152,135.38,152,152.37t10.82,28.21q10.81,11.08,27.55,11.09t27.76-11.14q11-11.17,11-28c0-11.34-3.72-20.69-11.14-28.12S201.17,113.25,189.83,113.25Zm16.07,56.56q-5.88,6.58-15.5,6.58a19.39,19.39,0,0,1-15.12-6.68c-4-4.45-6-10.05-6-16.84,0-7.16,1.95-13,5.87-17.54s9.07-6.73,15.47-6.62S202.16,131,206,135.33s5.79,10,5.79,17.08S209.84,165.41,205.9,169.81Z"></path> <rect class="cls-1" x="62.9" y="74.42" width="16.59" height="90.15"></rect> <path class="cls-1" d="M124.32,58.09a9.45,9.45,0,0,0,4.73-1.2,7.93,7.93,0,0,0,3.29-3.35,12.94,12.94,0,0,0,1.14-6,10,10,0,0,0-2.56-7.29,8.78,8.78,0,0,0-6.6-2.65,9,9,0,0,0-6.14,2.2q-3,2.59-3,8c0,3.28.83,5.81,2.52,7.57A8.8,8.8,0,0,0,124.32,58.09Zm-4.11-15.84a5.48,5.48,0,0,1,8.23,0,8,8,0,0,1,1.63,5.48c0,2.56-.53,4.49-1.63,5.74a5.46,5.46,0,0,1-8.23,0c-1.11-1.27-1.65-3.13-1.65-5.63S119.1,43.48,120.21,42.25Z"></path> <polygon class="cls-1" points="170.84 57.64 176.31 50.33 181.82 57.68 185.96 57.68 178.44 47.59 185.51 38.07 181.41 38.07 176.31 44.77 171.26 38.07 167.16 38.07 174.26 47.59 166.74 57.64 170.84 57.64"></polygon> <path class="cls-1" d="M104.54,55.37a5.39,5.39,0,0,1-3.52-1,4.66,4.66,0,0,1-1.55-3l-3.28.52a7.33,7.33,0,0,0,2.56,4.69,9.11,9.11,0,0,0,5.8,1.59,10.4,10.4,0,0,0,4.14-.79A6.19,6.19,0,0,0,111.46,55a5.35,5.35,0,0,0,1-3.12,4.8,4.8,0,0,0-.8-2.83,4.86,4.86,0,0,0-2.17-1.73,35.72,35.72,0,0,0-4.93-1.54c-1.59-.47-2.59-.74-2.93-.85a2.79,2.79,0,0,1-1.25-.91,1.81,1.81,0,0,1-.4-1.15,2.13,2.13,0,0,1,1-1.76,5.33,5.33,0,0,1,3.23-.76,4.68,4.68,0,0,1,3,.85,3.65,3.65,0,0,1,1.27,2.36l3.25-.44a7.52,7.52,0,0,0-1.15-3A5.45,5.45,0,0,0,108,38.31a10.79,10.79,0,0,0-4-.67,10.28,10.28,0,0,0-2.88.39A7.71,7.71,0,0,0,99,39a5.22,5.22,0,0,0-1.63,1.86,5.36,5.36,0,0,0-.61,2.42,4.93,4.93,0,0,0,.74,2.62,4.84,4.84,0,0,0,2.15,1.85,29.7,29.7,0,0,0,5,1.61,14.3,14.3,0,0,1,3.39,1.12,2,2,0,0,1,1,1.77,2.71,2.71,0,0,1-1.1,2.17A5.27,5.27,0,0,1,104.54,55.37Z"></path> <path class="cls-1" d="M162.13,56.42a8.35,8.35,0,0,0,3-4.66l-3.44-.41a6.4,6.4,0,0,1-2,3,5.17,5.17,0,0,1-3.12,1,5.4,5.4,0,0,1-4.09-1.71,7.6,7.6,0,0,1-1.84-4.95h14.61c0-.38,0-.67,0-.88,0-3.23-.84-5.73-2.48-7.52a8.42,8.42,0,0,0-6.42-2.67,8.63,8.63,0,0,0-6.61,2.73c-1.68,1.82-2.54,4.37-2.54,7.67s.84,5.65,2.52,7.41a10.17,10.17,0,0,0,12.42,1Zm-9.6-14.51a5.29,5.29,0,0,1,3.86-1.54,5,5,0,0,1,4.09,1.93A6.29,6.29,0,0,1,161.73,46H150.81A6,6,0,0,1,152.53,41.91Z"></path> <polygon class="cls-1" points="279.28 94.81 259.98 145.8 240.55 94.81 223.8 94.81 252.88 171.59 267.12 171.59 296.17 94.81 279.28 94.81"></polygon> <rect class="cls-1" x="62.9" y="35.81" width="16.59" height="23.85"></rect> <path class="cls-1" d="M143.72,37.88a8.5,8.5,0,0,0-2,1.2,7,7,0,0,0-1.54,1.85l-.23-.08V38.11h-3.45V57.6h3.45V48.39a9.07,9.07,0,0,1,.9-4.4,6,6,0,0,1,2.64-2.49A4.26,4.26,0,0,1,144.9,41a17.31,17.31,0,0,1,1.74-.07V37.38l-1,0A5.2,5.2,0,0,0,143.72,37.88Z"></path> <path class="cls-1" d="M137.22,117.24a73.28,73.28,0,0,0-11.4-5.83c-6.85-2.79-10.27-6-10.27-9.79a6.83,6.83,0,0,1,2-4.92,6.33,6.33,0,0,1,4.73-2c2.39,0,6.28,1.6,11.71,4.79l10.28-11.29q-8.67-8-21.4-8.05-10.74,0-17.41,6.36c-4.43,4.26-6.68,9.79-6.68,16.6a21.1,21.1,0,0,0,2.09,9,17.78,17.78,0,0,0,5.14,6.73c2,1.54,5.46,3.19,10.29,5Q129,128.4,129,134.35a7.73,7.73,0,0,1-2.76,5.53,8.41,8.41,0,0,1-5.78,2.64c-4.24,0-8.84-2.53-13.74-7.56L95.84,147.65q11.64,11.25,23.58,11.24a27,27,0,0,0,18.87-7.29q8-7.31,8-17.16a19.91,19.91,0,0,0-2.61-10A20.67,20.67,0,0,0,137.22,117.24Z"></path> </svg> 