<?xml version="1.0" encoding="utf-8"?>
<!-- Generator: Adobe Illustrator 24.1.2, SVG Export Plug-In . SVG Version: 6.00 Build 0)  -->
<svg version="1.1" id="Слой_1" xmlns="http://www.w3.org/2000/svg" xmlns:xlink="http://www.w3.org/1999/xlink" x="0px" y="0px"
	 viewBox="0 0 290.4 100" style="enable-background:new 0 0 290.4 100;" xml:space="preserve">
<style type="text/css">
	.st0{fill:url(#SVGID_1_);}
	.st1{fill:url(#SVGID_2_);}
	.st2{fill:url(#SVGID_3_);}
	.st3{fill:url(#SVGID_4_);}
	.st4{fill:url(#SVGID_5_);}
</style>
<g>
	<g>
		
			<linearGradient id="SVGID_1_" gradientUnits="userSpaceOnUse" x1="19.7738" y1="-3.859" x2="208.7176" y2="-196.137" gradientTransform="matrix(1 0 0 -1 0 15.6)">
			<stop  offset="0" style="stop-color:#006837"/>
			<stop  offset="1" style="stop-color:#8CC63F"/>
		</linearGradient>
		<path class="st0" d="M71.6,33.3l-0.4-9.8c-3.1-2.2-6.4-3.8-9.8-4.9c-3.4-1.1-7-1.6-10.7-1.6c-9.5,0-17.1,3-22.8,9.1
			c-5.7,6-8.6,14.1-8.6,24.3c0,7.1,1.5,13.4,4.4,19s7,10,12.4,13.2c5.3,3.2,11,4.9,16.9,4.9c4.7,0,9.4-0.6,14-1.7
			c3.4-0.8,6.9-2.6,10.4-5.3l1.1,1.1c-0.7,1.7-1.4,3.4-2.1,5.1c-4.1,2.1-8.3,3.7-12.4,4.8c-4.2,1.1-8.4,1.6-12.6,1.6
			c-8.7,0-16.3-1.7-22.8-5.2C22,84.4,17,79.6,13.5,73.4C9.8,67.2,8,60.2,8,52.4s1.8-14.7,5.3-20.9s8.6-10.9,15.1-14.3
			s14.5-5.1,23.9-5.1c5,0,10.8,0.8,17.4,2.5c3.3,0.8,6,1.4,8.1,1.8c-1.6,3.9-2.5,9.5-2.7,16.7L71.6,33.3L71.6,33.3z"/>
		
			<linearGradient id="SVGID_2_" gradientUnits="userSpaceOnUse" x1="40.3027" y1="16.3141" x2="229.2466" y2="-175.9641" gradientTransform="matrix(1 0 0 -1 0 15.6)">
			<stop  offset="0" style="stop-color:#006837"/>
			<stop  offset="1" style="stop-color:#8CC63F"/>
		</linearGradient>
		<path class="st1" d="M99.5,49l6.9-6.4c1.6-1.6,3.2-2.7,4.8-3.3c1.6-0.6,3.5-0.9,5.7-0.9c3.9,0,7.3,0.8,10.2,2.5
			c2.9,1.6,4.9,3.7,6,6.3s1.7,6.9,1.7,13.1l-0.3,16.4c0,3.7,0.1,6.6,0.4,8.7c0.1,0.9,0.4,1.5,0.9,2c0.5,0.4,1.5,0.7,3.1,0.9l4,0.4
			V92c-3.4-0.3-6.7-0.4-10-0.4c-2.8,0-5.5,0.1-8.3,0.4c0.6-9.2,0.9-18.3,0.9-27.3c0-6-0.4-10.1-1.1-12.2c-0.7-2.1-2-3.8-3.9-5.1
			s-4.2-1.9-7.1-1.9s-5.6,0.7-8,2.2s-4,3.1-5,5.1c-0.6,1.4-1,4.6-1,9.7v9.6c0,8.8,0.2,13.6,0.6,14.5s1.8,1.5,4.2,1.7l4.6,0.4V92
			c-5.5-0.3-9.9-0.4-13.3-0.4c-3.5,0-8,0.1-13.7,0.4v-3.2l3.3-0.4c2.1-0.3,3.4-0.6,3.9-0.9s0.9-1.2,1.1-2.4c0.2-2,0.4-6.4,0.4-13.4
			V34.4c0-9.8-0.2-15.3-0.7-16.5c-0.3-0.8-1.7-1.2-4.3-1.2H82v-3.4c5.5-0.6,9.8-1.4,13.1-2.5l4.3-1.5c0.6,0,0.8,0.4,0.8,1.2
			l-0.2,2.3l-0.3,9.9c-0.2,5-0.3,8.9-0.3,11.6L99.5,49L99.5,49z"/>
		
			<linearGradient id="SVGID_3_" gradientUnits="userSpaceOnUse" x1="72.8773" y1="48.3238" x2="261.8211" y2="-143.9544" gradientTransform="matrix(1 0 0 -1 0 15.6)">
			<stop  offset="0" style="stop-color:#006837"/>
			<stop  offset="1" style="stop-color:#8CC63F"/>
		</linearGradient>
		<path class="st2" d="M164.3,9.9c-0.6,10.8-0.9,20.6-0.9,29.3v28.4c0,11.3,0.2,17.7,0.7,19.2c0.2,0.8,1.4,1.3,3.5,1.5l4.5,0.5V92
			c-3.8-0.3-7.5-0.4-11-0.4c-3.9,0-9,0.1-15.2,0.4v-3.2l4.5-0.4c2-0.2,3.1-0.7,3.4-1.6c0.5-1.4,0.7-8,0.7-19.6V38.9l-0.1-10.6
			l-0.2-7.2c0-1.8-0.2-2.9-0.6-3.3c-0.6-0.6-1.7-0.9-3.5-0.9h-4.3v-3.3c7.3-0.7,13.2-2.1,17.6-4.3L164.3,9.9z"/>
		
			<linearGradient id="SVGID_4_" gradientUnits="userSpaceOnUse" x1="90.5256" y1="65.666" x2="279.4696" y2="-126.6122" gradientTransform="matrix(1 0 0 -1 0 15.6)">
			<stop  offset="0" style="stop-color:#006837"/>
			<stop  offset="1" style="stop-color:#8CC63F"/>
		</linearGradient>
		<path class="st3" d="M178.5,65.5c0-5.1,1.1-9.7,3.4-13.8c2.3-4.1,5.4-7.3,9.5-9.6c4.1-2.3,8.7-3.5,13.9-3.5c7.5,0,13.5,2.3,18,7
			c4.5,4.6,6.8,10.8,6.8,18.6c0,9.1-2.9,16.4-8.8,21.8c-5.2,4.8-11.5,7.2-18.8,7.2c-7,0-12.8-2.5-17.2-7.4
			C180.7,80.7,178.5,74,178.5,65.5z M188.4,61.6c0,7.6,1.5,14.1,4.5,19.5s7.3,8.1,12.9,8.1c4.3,0,7.7-1.7,10.3-5.1s3.9-8.5,3.9-15.4
			c0-5.6-0.8-10.4-2.3-14.5s-3.6-7-6.1-8.9s-5.4-2.8-8.5-2.8c-2.8,0-5.3,0.7-7.5,2.2s-3.9,3.4-4.9,5.9
			C189.2,54,188.4,57.6,188.4,61.6z"/>
		
			<linearGradient id="SVGID_5_" gradientUnits="userSpaceOnUse" x1="119.2693" y1="93.9113" x2="308.2131" y2="-98.3669" gradientTransform="matrix(1 0 0 -1 0 15.6)">
			<stop  offset="0" style="stop-color:#006837"/>
			<stop  offset="1" style="stop-color:#8CC63F"/>
		</linearGradient>
		<path class="st4" d="M246.8,65.2c0.2,7.3,1.9,12.8,5.3,16.5c3.4,3.8,7.8,5.6,13.3,5.6c2.5,0,4.9-0.4,7.3-1.3s4.8-2.1,7.2-3.8
			l0.9,0.8l-1.7,4.6c-2.9,1.8-5.9,3.1-9,4s-6.3,1.3-9.6,1.3c-7.1,0-12.9-2.4-17.3-7.1c-4.4-4.7-6.6-11.2-6.6-19.3
			c0-6.2,1.2-11.6,3.7-16.1c1.6-3,4.6-5.7,9-8.3c4.4-2.5,8.6-3.8,12.7-3.8c6.2,0,11.2,1.9,14.8,5.7c3.6,3.8,5.5,9.2,5.5,16.1
			l-0.1,3.3c-2.3,0.6-4.5,1-6.6,1.2c-3.8,0.3-9,0.4-15.7,0.4L246.8,65.2L246.8,65.2z M246.9,61.1c5.5,0.3,11.5,0.4,18.1,0.4
			c2.6,0,5.2-0.1,7.7-0.4V58c0-3.2-0.6-6.3-1.8-9.2c-0.8-1.8-2.1-3.3-4.1-4.5c-1.9-1.2-4.2-1.8-6.7-1.8c-3.9,0-7.1,1.5-9.4,4.5
			C248.2,50,247,54.7,246.9,61.1z"/>
	</g>
</g>
</svg>
