<?xml version="1.0" encoding="utf-8"?>
<!-- Generator: Adobe Illustrator 24.1.2, SVG Export Plug-In . SVG Version: 6.00 Build 0)  -->
<svg version="1.1" id="Слой_1" xmlns="http://www.w3.org/2000/svg" xmlns:xlink="http://www.w3.org/1999/xlink" x="0px" y="0px"
	 viewBox="0 0 102 95.4" style="enable-background:new 0 0 102 95.4;" xml:space="preserve">
<style type="text/css">
	.st0{fill:#000403;}
	.st1{fill:none;}
	.st2{clip-path:url(#SVGID_2_);}
</style>
<g id="logo_black" transform="translate(0 -0.395)">
	<path id="Fill_1" class="st0" d="M38.9,33.2c-5.5-1.5-10.8-3.7-15.7-6.5c-0.6,2.4-0.9,4.9-0.9,7.4c0,16.5,13,29.9,29.1,29.9
		c13.7-0.1,25.4-9.7,28.3-23.1c-4.2,3.1-8.8,5.7-13.6,7.7c0,0,15.2-9.6,13.2-22.6C76,13.2,64.5,4.3,51.4,4.2
		c-11.1,0.1-21.2,6.5-26,16.5C29,26.5,35.5,30.6,39,32.5V20.2h6.4v19.1c-0.1,1.7,0.5,3.4,1.7,4.8c1.3,1.2,3,1.8,4.8,1.7
		c1.7,0.1,3.5-0.5,4.7-1.7c1.2-1.3,1.8-3,1.7-4.8V20.2h6.4V40c0.1,3.1-1.2,6.1-3.5,8.2c-2.3,2.1-5.4,3.1-9.3,3.1s-7-1-9.4-3.1
		c-2.3-2.1-3.6-5.1-3.5-8.2L38.9,33.2"/>
	<path id="Fill_3" class="st0" d="M26.5,67.7v8.7c0,0.6,0.1,1.2,0.5,1.7c0.4,0.4,1,0.6,1.6,0.6s1.1-0.2,1.6-0.6
		c0.4-0.5,0.6-1.1,0.5-1.7v-8.7h4.2v9.1c0.1,1.5-0.6,2.9-1.7,3.9c-1.3,1-2.9,1.5-4.6,1.4c-1.6,0.1-3.3-0.4-4.6-1.4
		c-1.1-1-1.8-2.4-1.7-3.9v-9.1H26.5"/>
	<path id="Fill_4" class="st0" d="M45.1,82h-4.2V71.1h-3.8v-3.3h11.7v3.3H45L45.1,82"/>
	<path id="Fill_5" class="st0" d="M57.2,82.2c-2,0.1-3.9-0.6-5.3-2c-1.3-1.5-2-3.4-1.9-5.4c-0.1-2,0.6-3.9,1.9-5.4
		c1.4-1.4,3.3-2.1,5.3-2c2-0.1,3.9,0.6,5.3,2c1.3,1.5,2,3.4,1.9,5.4c0.1,2-0.6,3.9-1.9,5.4C61.1,81.6,59.2,82.3,57.2,82.2z
		 M57.2,70.8c-0.8,0-1.6,0.4-2.1,1.1c-0.6,0.9-0.9,1.9-0.8,2.9c-0.1,1,0.2,2.1,0.8,2.9c0.5,0.7,1.3,1.1,2.1,1.1s1.6-0.4,2.1-1.1
		c0.6-0.9,0.9-1.9,0.8-2.9c0.1-1-0.2-2.1-0.8-2.9C58.9,71.2,58.1,70.8,57.2,70.8z"/>
	<g id="Group_14" transform="translate(0 63.7)">
		<path id="Clip_7-2" class="st1" d="M22.3,4h57.4v24.2H22.3V4z"/>
		<g>
			<g>
				<defs>
					<rect id="SVGID_1_" x="22.3" y="4" width="57.4" height="24.2"/>
				</defs>
				<clipPath id="SVGID_2_">
					<use xlink:href="#SVGID_1_"  style="overflow:visible;"/>
				</clipPath>
				<g id="Group_14-2" class="st2">
					<path id="Fill_6" class="st0" d="M70.8,18.3h-4V4h3.3l5.5,7.4h0.1V4h4v14.2h-3.2l-5.6-7.5h-0.1L70.8,18.3"/>
					<path id="Fill_8" class="st0" d="M27.6,28.3H27v-2.6h-4v2.6h-0.6v-5.6H23v2.5h4v-2.5h0.7v5.6"/>
					<path id="Fill_9" class="st0" d="M38,27.8v0.5h-4.2v-5.6H38v0.5h-3.5v2h3.3v0.5h-3.3v2.2L38,27.8"/>
					<path id="Fill_10" class="st0" d="M44.2,28.3h-0.7l2.6-5.6h0.7l2.6,5.6h-0.7l-0.8-1.7H45L44.2,28.3z M46.4,23.4l-1.2,2.8h2.5
						L46.4,23.4L46.4,23.4z"/>
					<path id="Fill_11" class="st0" d="M59.1,27.8v0.5H55v-5.6h0.6v5.1H59.1"/>
					<path id="Fill_12" class="st0" d="M66.3,28.3h-0.7v-5.1h-2.3v-0.5h5.3v0.5h-2.3V28.3"/>
					<path id="Fill_13" class="st0" d="M79.7,28.3H79v-2.6h-4v2.6h-0.7v-5.6H75v2.5h4v-2.5h0.7V28.3"/>
				</g>
			</g>
		</g>
	</g>
</g>
</svg>
